<?xml version="1.0" encoding="utf-8"?>
<!-- Generator: Adobe Illustrator 18.0.0, SVG Export Plug-In . SVG Version: 6.00 Build 0)  -->
<!DOCTYPE svg PUBLIC "-//W3C//DTD SVG 1.1//EN" "http://www.w3.org/Graphics/SVG/1.1/DTD/svg11.dtd">
<svg version="1.1" id="图层_1" xmlns="http://www.w3.org/2000/svg" xmlns:xlink="http://www.w3.org/1999/xlink" x="0px" y="0px"
	 viewBox="0 0 692 321" enable-background="new 0 0 692 321" xml:space="preserve">
<polygon fill="#9E8DB0" points="439,67 4,67 24.8,35.5 4,3.5 439,3.5 "/>
<polygon fill="#9E8DB0" points="287,123 683.4,123 664.4,91.5 683.4,59.5 287,59.5 "/>
<polygon fill="#FB5A02" points="439,63.5 0,63.5 21,32 0,0 439,0 "/>
<polygon fill="#FB5A02" points="287,119.5 687,119.5 667.9,88 687,56 287,56 "/>
<g>
	<path fill="#FFFFFF" d="M36.1,27.4h43.5l-2.8,6H36.1V27.4z"/>
	<path fill="#FFFFFF" d="M87.7,26l-3.2-7.3h6.8l3.4,7.3h1l3.4-7.3h6.7l-3.3,7.3h5l-2.2,4.9H84V26H87.7z M105,16.6H84.5v-4.8h6.4
		c0.2-0.4,0.5-0.8,0.8-1.2s0.7-0.7,1.4-1s1.4-0.5,2.3-0.5s1.6,0.2,2.3,0.6s1.4,1.1,1.9,2.1h7.4L105,16.6z M84.5,33.7h21v12.9
		l-6.9,5.7H84.5V33.7z M98.6,38.5h-7.2V47h7.2V38.5z M107.6,9.7h19.1v16.2l-3.9,2.9l3.9,2.7v12.3l-6,5.7h-6.1v2.1l-7.1,1.9V9.7z
		 M114.6,14.6V27h5.1V14.6H114.6z M114.6,44.6h5.1V31.9h-5.1V44.6z"/>
	<path fill="#FFFFFF" d="M155.9,16.9L132.4,18v-6.3l42.8-2l-1.8,6.3l-9.2,0.4l0,6.5h10.6l-2.2,5.2h-8.4l0,6.1l10.7,0l-2.2,5.2
		l-8.5,0v8l-7.8,5.3l-23,0v-4.9l22.5,0v-8.5l-24.3,0v-5.2h24.3v-6.1l-23.7,0V23h23.7V16.9z"/>
	<path fill="#FFFFFF" d="M201.1,14l-2.5,5.6h-5.2V51l-6.1,2.5V19.6h-7.7V14h7.7V9.5h6.1V14H201.1z M179.7,50.8l1.4-28.5h5.6
		l-1.1,28.5H179.7z M194.1,22.3h5.5l1.1,28.4h-5.8L194.1,22.3z M202,9.9h19.1v36.9h2.3l-2.4,5.6h-6.3V15.6h-6.2v34.7l-6.5,3V9.9z"/>
	<path fill="#FFFFFF" d="M228.1,27.4h43.5l-2.8,6h-40.8V27.4z"/>
	<path fill="#FFFFFF" d="M291.1,9.8h12.6l16.1,14.7h-11.6l-10.9-10.1l-10.6,10.1H275L291.1,9.8z M300.7,19.8v30.6l-8.2,3.6V19.8
		H300.7z"/>
	<path fill="#FFFFFF" d="M330.4,19.7h-6.8L328,9.2h6.5L330.4,19.7z M334.6,20.2l-1.8,5.6v25l-6.2,2.7V31.5h-2.8l4.5-11.3H334.6z
		 M335.2,24.3V10.1h5v9.4h1.1V9.2h5.5v10.2h1.2V9.9h4.9v9.5l-4.2,4.9H335.2z M350.4,30.5h-14.7v-4.2h17L350.4,30.5z M350.7,52.6
		h-5.6V38.2h-3.4v12.9l-6.2,2.3V33.2h15.8v14.6h1.7L350.7,52.6z M362.7,35.5l4.3,17.1h-6l-1.4-5.8l-1.6,5.8h-5.8l4.7-17l-3.2-13.2
		h5.8l0.5,2.3l1.1-4.1h5.7L362.7,35.5z M355.8,9.2h6.5l-0.8,3.5h6.3l-2.2,5h-5.1l-0.6,2.1h-6.6L355.8,9.2z"/>
	<path fill="#FFFFFF" d="M376.3,9.2h7.9l-2.3,8.1v32.6l-7.4,3.2V25.2h-3.2L376.3,9.2z M395,12c0.1-0.4,0.3-0.9,0.5-1.5
		s0.8-1.2,1.5-1.6s1.6-0.7,2.4-0.7c0.8,0,1.6,0.3,2.4,0.7s1.3,1,1.5,1.5L404,12h11.5l-2.2,4.8h-29.4l0-4.8H395z M384.5,20.2h30.6
		l-2.2,4.8h-28.4V20.2z M384.5,29.1h30.7l-2.3,5h-28.4V29.1z M384.5,36.9l29.9,0l0,10.6l-7.2,4.9l-22.7,0V36.9z M392,41.7v5.8h15
		l0-5.9L392,41.7z"/>
</g>
<g>
	<path fill="#FFFFFF" d="M327.8,109.7l0.4,0.8h-6l-2.8-6.4l-3.2,6.4h-6l6.6-13.6V76.1h5v20.8l0.9,2V73.2h-6.9v24.8l-5.3,2.3V67.7
		h17.6v29.6l-5.1,2.2l4.5,9.7l2.5-9.4h4.3V98h-4.5v-4.6h4.5v-2.8h-5.6v-4.7h5.6v-2.6h-4.4v-4.8h4.4v-2.5h-5.2V71h4l-1.9-3.9h6.1
		l1.9,3.9h4.7l1.8-3.9h6.1L350,71h3.8l-2,4.8H346v2.5h6.7v7.5h2.5l-1.9,4.7h-0.6v2.7l-4.6,4.8l-2,0v1.9h4.6l3.1,9.9h-5.2l-2.6-8.1
		v6.8l-5.2,2.8V98h-1.2v10.5l-5.3,3v-8.3l-1.7,6.6H327.8z M340.9,78.4v-2.5h-1.2v2.5H340.9z M340.9,85.8v-2.6h-1.2v2.6H340.9z
		 M340.9,93.3v-2.8h-1.2v2.8H340.9z M347.2,85.8v-2.6H346v2.6H347.2z M347.2,90.5H346v2.8l1.2,0L347.2,90.5z"/>
	<path fill="#FFFFFF" d="M360.9,67h7.3l-0.8,2.7l8.6,0l-2.2,5.2l-7.7,0l-0.9,2.8h-7.4L360.9,67z M358.2,91.4h4.8v-6h-4.6v-5.1h17.2
		l-2.4,5.1H370v6h5.7l-2.4,5H370v9.2h4.8l-2.3,5.2H363V96.3h-4.8V91.4z M393.1,91.6l0.4,2.2h6.6l-5.6,5.5l1.2,6.3h5.1l-2.4,5.3h-9.3
		l-0.9-5.6l-4.6,4.7h-9l12.2-12.2l-1.2-6.2h-8.6V86h7.5l-0.9-5.2h-6.2v-5.5h5.2l-1.3-7.4h7.4l1.4,7.4H402l-2.5,5.5h-8.4L392,86h9.7
		l-2.4,5.6H393.1z M395.6,67.5c0.6,0,1.2,0.2,1.8,0.5s1.1,0.8,1.4,1.4s0.5,1.3,0.5,1.9s-0.2,1.3-0.5,1.9c-0.3,0.6-0.8,1.1-1.4,1.4
		s-1.2,0.5-1.9,0.5c-0.7,0-1.3-0.2-1.9-0.5s-1-0.8-1.4-1.4s-0.5-1.2-0.5-1.9c0-0.7,0.2-1.3,0.5-1.9s0.8-1.1,1.4-1.4
		S395,67.5,395.6,67.5z"/>
	<path fill="#FFFFFF" d="M411.4,67.5h7.9L416,78.4v30.2l-7.4,3.2V83.5h-2.7L411.4,67.5z M419.3,87.5v-5h3.4v-6.4h-3.1v-5h3.1v-3.6
		h7.2v3.6h8.1v-3.4h7.1v3.4h3.9l-1.9,5h-2v6.4h3.9l-2.2,5H419.3z M419.4,89.6h28.7v15.8l-7.4,5.4h-21.3V89.6z M426.9,102.3v3.8h13.8
		V94.3h-13.8v3.6h12.8l-1.9,4.4H426.9z M438,82.5v-6.4h-8.1v6.4H438z"/>
	<path fill="#FFFFFF" d="M456.9,67h7.3l-0.8,2.7l8.6,0l-2.2,5.2l-7.7,0l-0.9,2.8h-7.4L456.9,67z M454.2,91.4h4.8v-6h-4.6v-5.1h17.2
		l-2.4,5.1H466v6h5.7l-2.4,5H466v9.2h4.8l-2.3,5.2H459V96.3h-4.8V91.4z M489.1,91.6l0.4,2.2h6.6l-5.6,5.5l1.2,6.3h5.1l-2.4,5.3h-9.3
		l-0.9-5.6l-4.6,4.7h-9l12.2-12.2l-1.2-6.2h-8.6V86h7.5l-0.9-5.2h-6.2v-5.5h5.2l-1.3-7.4h7.4l1.4,7.4H498l-2.5,5.5h-8.4L488,86h9.7
		l-2.4,5.6H489.1z M491.6,67.5c0.6,0,1.2,0.2,1.8,0.5s1.1,0.8,1.4,1.4s0.5,1.3,0.5,1.9s-0.2,1.3-0.5,1.9c-0.3,0.6-0.8,1.1-1.4,1.4
		s-1.2,0.5-1.9,0.5c-0.7,0-1.3-0.2-1.9-0.5s-1-0.8-1.4-1.4s-0.5-1.2-0.5-1.9c0-0.7,0.2-1.3,0.5-1.9s0.8-1.1,1.4-1.4
		S491,67.5,491.6,67.5z"/>
	<path fill="#FFFFFF" d="M537.1,101h-3l-3.4-3.8l-2.4,4.2h-7.4l2.1-3.3l-3.4-2.4l-5.2,5h-3.8v7.8l-7.1,2.4V77.8h11.8v-4.8h-12.3
		v-5.1h42.8l-2.1,5.1h-11.1v4.8h11.6v27.7l-5.8,5.2H533v-5h4.1V101z M515.3,82.8h-4.7v13.5l4.7-4.5V82.8z M522.3,72.9v4.8h3.1v-4.8
		H522.3z M525,93.7l0.4-1.8v-9.1h-3.1v8.7L525,93.7z M537.2,96.3l0-13.5h-4.6l0,8.8L537.2,96.3z"/>
	<path fill="#FFFFFF" d="M593.3,67.7l-2.8,5.8h-21.1L557.9,108h-7.7l11.4-34.5h-10.5v-5.8H593.3z M568.2,78.1h7.6l0,30.4l-7.5,3.4
		L568.2,78.1z M579.1,77.3l7.3,0l6.8,30.8h-7.4L579.1,77.3z"/>
	<path fill="#FFFFFF" d="M598.6,81.6h10l0,23.6l3.2,0l-2.5,5.7l-8.1-0.1V87.3h-2.6V81.6z M604.8,67c0.7,0,1.4,0.2,2.1,0.6
		s1.3,0.9,1.7,1.6s0.6,1.4,0.6,2.2c0,0.8-0.2,1.5-0.6,2.2s-0.9,1.2-1.6,1.6s-1.4,0.6-2.2,0.6c-0.8,0-1.5-0.2-2.2-0.6
		s-1.2-0.9-1.6-1.6s-0.6-1.4-0.6-2.2s0.2-1.5,0.6-2.2c0.4-0.7,0.9-1.2,1.7-1.6S604.1,67,604.8,67z M621.4,100.4H613v-4.9h9.9V91H613
		v-4.8h27.9l-2.3,4.8h-8.3v4.5h11.8l-2.4,4.9h-7.2l8.6,10.1h-9.3l-5-6l-6.1,6.3h-9.3L621.4,100.4z M613.2,82.7V67.4h26.9v9.9
		l-7.4,5.4H613.2z M620.7,72.2v5.6h12v-5.6H620.7z"/>
</g>
<g>
	<g>
		<path fill="#FFFFFF" stroke="#FB5A02" stroke-width="12" stroke-linejoin="round" stroke-miterlimit="10" d="M147,158.9v9.1h-8.5
			v-4h-37.6v-5.1h18.5v-2.1h-17.1v-5.1h17.1v-2.4h8.8v2.4H146v5.1h-17.8v2.1H147z M119.5,165.1l-1.9,4.5h-16.8v-4.5H119.5z M137,192
			l-10.8-9.6c-4.5,6.2-12.3,9.7-25,9.7V185c5.8,0.1,10.6-1.2,14.2-4h-14.4v-5.1h18.7c1.4-2.8,2.4-6.2,2.6-10.5h8.9
			c-0.2,3.9-0.7,7.4-1.7,10.5h18v5.1h-11.5l8.1,6.3h3.2L145,192H137z M119.5,170.7l-1.9,4.4h-16.8v-4.4H119.5z"/>
		<path fill="#FFFFFF" stroke="#FB5A02" stroke-width="12" stroke-linejoin="round" stroke-miterlimit="10" d="M148.3,185.6
			c13.2-0.1,19.2-2,19.2-6.3v-2.9h9.4v2.9c0,4.3,6,6.2,19.2,6.3v5.9c-10,0-18.8-1-23.9-4.1c-5,3.1-13.8,4.1-23.9,4.1V185.6z
			 M152.5,169.4v-9.3h-2.8l-1.2-4.6h2.9l4.5-6h10.2l-5.4,8.2h1.2v11.8H152.5z M150.9,170.5h42.7v12.7H184v-8.1h-23.7v8.1h-9.5V170.5
			z M179.9,149.4l3.2,4.5h13v4.8h-9.5l4.3,6.1h5.2l-1.8,4.6h-11.6l-7.2-10.7h-11.9v-4.8h8.6l-3-4.5H179.9z M193.9,149.2l-1.2,3.6
			h-6.9v-3.6H193.9z"/>
		<path fill="#FFFFFF" stroke="#FB5A02" stroke-width="12" stroke-linejoin="round" stroke-miterlimit="10" d="M205.3,159.3v-2.6
			h-8.9v-4.8h8.9v-2.5h8.3v2.5h8.9v4.8h-8.9v2.6h8v4.8h-24.2v-4.8H205.3z M204.6,178.7l-1.1,13H197l-0.6-3.7h1.1l0.8-9.3H204.6z
			 M205.1,192.2l-0.7-4h1.7v-10.8h-9.2v-4.8H222v4.8h-8.7v14.8H205.1z M221.6,165.9v4.8h-24.2v-4.8H221.6z M220.7,178.7l0.8,9.3h1.1
			l-0.7,3.7h-6.4l-1.1-13H220.7z M242.6,192.2h-6.9l-3.4-14.3c-1.6,6-4.5,11-9.6,14.3v-9.1c3.6-5.9,4-12.1,4.3-23.3h7.2
			c0,3.5-0.1,6.9-0.4,10.1h3.9l4.2,17.9h1.9L242.6,192.2z M236.4,157.7h-13.3l2.5-8.4h8.6l-1,3.7h10.6v14.7h-7.5V157.7z"/>
	</g>
	<g>
		<g>
			<path fill="#FFFFFF" d="M147,158.9v9.1h-8.5v-4h-37.6v-5.1h18.5v-2.1h-17.1v-5.1h17.1v-2.4h8.8v2.4H146v5.1h-17.8v2.1H147z
				 M119.5,165.1l-1.9,4.5h-16.8v-4.5H119.5z M137,192l-10.8-9.6c-4.5,6.2-12.3,9.7-25,9.7V185c5.8,0.1,10.6-1.2,14.2-4h-14.4v-5.1
				h18.7c1.4-2.8,2.4-6.2,2.6-10.5h8.9c-0.2,3.9-0.7,7.4-1.7,10.5h18v5.1h-11.5l8.1,6.3h3.2L145,192H137z M119.5,170.7l-1.9,4.4
				h-16.8v-4.4H119.5z"/>
		</g>
		<g>
			<path fill="#FFFFFF" d="M148.3,185.6c13.2-0.1,19.2-2,19.2-6.3v-2.9h9.4v2.9c0,4.3,6,6.2,19.2,6.3v5.9c-10,0-18.8-1-23.9-4.1
				c-5,3.1-13.8,4.1-23.9,4.1V185.6z M152.5,169.4v-9.3h-2.8l-1.2-4.6h2.9l4.5-6h10.2l-5.4,8.2h1.2v11.8H152.5z M150.9,170.5h42.7
				v12.7H184v-8.1h-23.7v8.1h-9.5V170.5z M179.9,149.4l3.2,4.5h13v4.8h-9.5l4.3,6.1h5.2l-1.8,4.6h-11.6l-7.2-10.7h-11.9v-4.8h8.6
				l-3-4.5H179.9z M193.9,149.2l-1.2,3.6h-6.9v-3.6H193.9z"/>
		</g>
		<g>
			<path fill="#FFFFFF" d="M205.3,159.3v-2.6h-8.9v-4.8h8.9v-2.5h8.3v2.5h8.9v4.8h-8.9v2.6h8v4.8h-24.2v-4.8H205.3z M204.6,178.7
				l-1.1,13H197l-0.6-3.7h1.1l0.8-9.3H204.6z M205.1,192.2l-0.7-4h1.7v-10.8h-9.2v-4.8H222v4.8h-8.7v14.8H205.1z M221.6,165.9v4.8
				h-24.2v-4.8H221.6z M220.7,178.7l0.8,9.3h1.1l-0.7,3.7h-6.4l-1.1-13H220.7z M242.6,192.2h-6.9l-3.4-14.3c-1.6,6-4.5,11-9.6,14.3
				v-9.1c3.6-5.9,4-12.1,4.3-23.3h7.2c0,3.5-0.1,6.9-0.4,10.1h3.9l4.2,17.9h1.9L242.6,192.2z M236.4,157.7h-13.3l2.5-8.4h8.6l-1,3.7
				h10.6v14.7h-7.5V157.7z"/>
		</g>
	</g>
</g>
<g>
	<g>
		<path fill="#FFFFFF" stroke="#FB5A02" stroke-width="12" stroke-linejoin="round" stroke-miterlimit="10" d="M39.9,248.2v5.4h-3.6
			v7.9l3.6-1v6l-3.6,1V286H27l-1.7-5h2.9v-11.2l-4,1.2v-6l4-1.2v-10.3h-4v-5.4h4v-4.8h8.2v4.8H39.9z M70.8,248.7v5.4h-6.3v5.2H70
			v5.4h-5.5v5.4H70v5.4h-5.5v5.2h7l-1.7,5.4H43.2v-30.4h-2.5l-0.7-3.9h1.2l2.8-8.4h8.2l-1.7,5.4h6v-5.4h7.9v5.4H70.8z M51.1,259.3
			h5.5V254h-5.5V259.3z M51.1,270h5.5v-5.4h-5.5V270z M51.1,280.6h5.5v-5.2h-5.5V280.6z"/>
		<path fill="#FFFFFF" stroke="#FB5A02" stroke-width="12" stroke-linejoin="round" stroke-miterlimit="10" d="M75.9,286.2v-24.5
			h-2.4l-1.4-6.5h2.4l5.8-12h8.8l-1.3,2.8h11v-2.7h8.7v2.7h12v5.4H86.9v-3.3l-4.4,9.5h1.2v28.6H75.9z M119.1,254v5.4H87.3V254H119.1
			z M119.1,261.9v5.4H87.3v-5.4H119.1z M111,280.6l-1.9,5.2H87.3v-16.1h31.9v16.1h-7.9v-10.5H95.1v5.4H111z"/>
		<path fill="#FFFFFF" stroke="#FB5A02" stroke-width="12" stroke-linejoin="round" stroke-miterlimit="10" d="M139.8,285.8v-12H133
			V286h-10.8v-6.9h1.7v-35.7H166V286h-12.7l-1.5-5.5h4.6v-6.8h-7v12H139.8z M133,256.1h6.8v-7.1H133V256.1z M133,268.6h6.8v-7.3H133
			V268.6z M156.4,248.9h-7v7.1h7V248.9z M149.4,268.6h7v-7.3h-7V268.6z"/>
		<path fill="#FFFFFF" stroke="#FB5A02" stroke-width="12" stroke-linejoin="round" stroke-miterlimit="10" d="M213.7,247.8v5.1h-19
			v5.9h20.8v5.1h-20.8v21.8h-9.1V264h-17.7v-5.1h17.7v-15.7h9.1v4.7H213.7z M204.4,282.6l-5.6-15.6h8.8l4.4,10.7h2.4l-1,4.9H204.4z"
			/>
	</g>
	<g>
		<g>
			<path fill="#FFFFFF" d="M39.9,248.2v5.4h-3.6v7.9l3.6-1v6l-3.6,1V286H27l-1.7-5h2.9v-11.2l-4,1.2v-6l4-1.2v-10.3h-4v-5.4h4v-4.8
				h8.2v4.8H39.9z M70.8,248.7v5.4h-6.3v5.2H70v5.4h-5.5v5.4H70v5.4h-5.5v5.2h7l-1.7,5.4H43.2v-30.4h-2.5l-0.7-3.9h1.2l2.8-8.4h8.2
				l-1.7,5.4h6v-5.4h7.9v5.4H70.8z M51.1,259.3h5.5V254h-5.5V259.3z M51.1,270h5.5v-5.4h-5.5V270z M51.1,280.6h5.5v-5.2h-5.5V280.6z
				"/>
		</g>
		<g>
			<path fill="#FFFFFF" d="M75.9,286.2v-24.5h-2.4l-1.4-6.5h2.4l5.8-12h8.8l-1.3,2.8h11v-2.7h8.7v2.7h12v5.4H86.9v-3.3l-4.4,9.5h1.2
				v28.6H75.9z M119.1,254v5.4H87.3V254H119.1z M119.1,261.9v5.4H87.3v-5.4H119.1z M111,280.6l-1.9,5.2H87.3v-16.1h31.9v16.1h-7.9
				v-10.5H95.1v5.4H111z"/>
		</g>
		<g>
			<path fill="#FFFFFF" d="M139.8,285.8v-12H133V286h-10.8v-6.9h1.7v-35.7H166V286h-12.7l-1.5-5.5h4.6v-6.8h-7v12H139.8z M133,256.1
				h6.8v-7.1H133V256.1z M133,268.6h6.8v-7.3H133V268.6z M156.4,248.9h-7v7.1h7V248.9z M149.4,268.6h7v-7.3h-7V268.6z"/>
		</g>
		<g>
			<path fill="#FFFFFF" d="M213.7,247.8v5.1h-19v5.9h20.8v5.1h-20.8v21.8h-9.1V264h-17.7v-5.1h17.7v-15.7h9.1v4.7H213.7z
				 M204.4,282.6l-5.6-15.6h8.8l4.4,10.7h2.4l-1,4.9H204.4z"/>
		</g>
	</g>
</g>
<g>
	<g>
		<path fill="#FFFFFF" stroke="#FB5A02" stroke-width="12" stroke-linejoin="round" stroke-miterlimit="10" d="M470.7,183v-1.9
			l7.4-4.3h-25.3v-3.8h-3v-11.1h4.7l-1.9-6.7h9.4l1.9,6.7h5.6l-1.9-6.7h9.4l1.9,6.7h4.3l1.9-6.7h9.4l-1.9,6.7h4.7v11.1h-4.4v2.8
			L481,183h16.2v5.4h-18v8.5h-13.7l-1.8-5.6h7v-2.8H450V183H470.7z M459.1,171h28.8v-4.3h-28.8V171z"/>
		<path fill="#FFFFFF" stroke="#FB5A02" stroke-width="12" stroke-linejoin="round" stroke-miterlimit="10" d="M514.4,158.9v5.4
			h-3.8v7.9l3.8-1v6l-3.8,1.1v18.5h-9.9l-1.9-5h3.1v-11.2l-4.2,1.2v-6l4.2-1.2v-10.3h-4.2v-5.4h4.2v-4.8h8.7v4.8H514.4z
			 M545.3,169.8c-0.8,6-3.8,11.9-8.5,16.6c2.6,1.4,5.5,2.7,8.5,3.4v6.7c-5.4-0.9-10.3-2.7-14.4-5.4c-4.1,2.6-8.9,4.5-14.3,5.4v-6.7
			c3-0.7,5.8-1.9,8.3-3.3c-3.1-3-5.5-6.4-7-10h8.2c1.1,1.9,2.6,3.8,4.5,5.5c2.2-2.2,3.9-4.7,4.9-7h-18.7v-5.2h9.6V164h-10.8v-5.4
			h10.8v-4.6h8.3v4.6h10.8v5.4h-10.8v5.8H545.3z"/>
		<path fill="#FFFFFF" stroke="#FB5A02" stroke-width="12" stroke-linejoin="round" stroke-miterlimit="10" d="M546.8,195.4l-0.9-4
			h2l2.9-26h-4.9v-5.2h19.4v-6.2h8.6v6.2h19.4v5.2h-5l3,26h2l-0.9,4h-8.6l-3.8-30h-6.1v31.5h-8.6v-31.5h-6.1l-3.7,30H546.8z
			 M589.6,154.3l-1.7,4.9h-8.6v-4.9H589.6z"/>
	</g>
	<g>
		<g>
			<path fill="#FFFFFF" d="M470.7,183v-1.9l7.4-4.3h-25.3v-3.8h-3v-11.1h4.7l-1.9-6.7h9.4l1.9,6.7h5.6l-1.9-6.7h9.4l1.9,6.7h4.3
				l1.9-6.7h9.4l-1.9,6.7h4.7v11.1h-4.4v2.8L481,183h16.2v5.4h-18v8.5h-13.7l-1.8-5.6h7v-2.8H450V183H470.7z M459.1,171h28.8v-4.3
				h-28.8V171z"/>
		</g>
		<g>
			<path fill="#FFFFFF" d="M514.4,158.9v5.4h-3.8v7.9l3.8-1v6l-3.8,1.1v18.5h-9.9l-1.9-5h3.1v-11.2l-4.2,1.2v-6l4.2-1.2v-10.3h-4.2
				v-5.4h4.2v-4.8h8.7v4.8H514.4z M545.3,169.8c-0.8,6-3.8,11.9-8.5,16.6c2.6,1.4,5.5,2.7,8.5,3.4v6.7c-5.4-0.9-10.3-2.7-14.4-5.4
				c-4.1,2.6-8.9,4.5-14.3,5.4v-6.7c3-0.7,5.8-1.9,8.3-3.3c-3.1-3-5.5-6.4-7-10h8.2c1.1,1.9,2.6,3.8,4.5,5.5c2.2-2.2,3.9-4.7,4.9-7
				h-18.7v-5.2h9.6V164h-10.8v-5.4h10.8v-4.6h8.3v4.6h10.8v5.4h-10.8v5.8H545.3z"/>
		</g>
		<g>
			<path fill="#FFFFFF" d="M546.8,195.4l-0.9-4h2l2.9-26h-4.9v-5.2h19.4v-6.2h8.6v6.2h19.4v5.2h-5l3,26h2l-0.9,4h-8.6l-3.8-30h-6.1
				v31.5h-8.6v-31.5h-6.1l-3.7,30H546.8z M589.6,154.3l-1.7,4.9h-8.6v-4.9H589.6z"/>
		</g>
	</g>
</g>
<g>
	<path fill="#FFFFFF" stroke="#FB5A02" stroke-width="12" stroke-linejoin="round" stroke-miterlimit="10" d="M496.5,283.5l-2.2,4.7
		h-7.4v-21.6h4.6v-9.7h-5.2V254l-2.9,6.7h1.2v28.6h-7.2v-24.5h-2.2l-1.3-6.4h2.2l5.4-12h8.2l-2.4,5.5h4.3v-5.6h6.8v5.6h4.8v5h-4.8
		v9.7h4.6v21.6h-6.3v-16.9H493v12.3H496.5z M510.9,259.7c0.3,2.9,0.9,5.5,1.6,7.9c0.9-3.1,1.4-6.4,1.7-9.8h-10.8l2.5-10.9h7.5
		l-1.2,5.5h9v5.5h-0.8c-0.6,7-2,12.9-4.2,17.8c1.4,2.2,3,4.2,4.8,6v7.7c-3.2-1.9-6.1-4.3-8.5-7.3c-2.3,3-5,5.4-8.2,7.3v-7.7
		c1.8-1.5,3.3-3.2,4.5-5.2c-2.4-4.7-4-10.2-4.8-16.7H510.9z"/>
	<path fill="#FFFFFF" stroke="#FB5A02" stroke-width="12" stroke-linejoin="round" stroke-miterlimit="10" d="M525.7,289.4v-24.5
		h-2.5l-1.5-6.4h2.5l6.2-12h9.4l-7.2,14.3h1.3v28.6H525.7z M554.7,247.1l2.7,10.3H569v5.6h-10.1l5.7,21.5h4.6l-1.6,4.9h-11
		l-6.8-26.4h-13.5v-5.6h12.1l-2.6-10.3H554.7z M558.6,254.5v-5.6h9.6l-2.7,5.6H558.6z"/>
	<path fill="#FFFFFF" stroke="#FB5A02" stroke-width="12" stroke-linejoin="round" stroke-miterlimit="10" d="M585.5,283.5v5.4
		h-15.7v-5.4h3.8v-13.7h-3.4v-5.4h3.4v-11.2h-3.8v-5.4h15.7v5.4h-3.8v11.2h3.4v5.4h-3.4v13.7H585.5z M616.1,274.1v5.3h-9.7v4.5h10.8
		v5.2H587v-5.2h10.8v-4.5h-9.7v-5.3h9.7v-3.7h-10.6v-23.7H617v23.7h-7.2v-9.5h-3.3v4.3h3.3l-1.2,5.2h-2.1v3.7H616.1z M594.6,256h3.3
		v-4.3h-3.3V256z M594.6,265.3h3.3v-4.3h-3.3V265.3z M609.7,251.8h-3.3v4.3h3.3V251.8z"/>
</g>
<g>
	<g>
		<path fill="#FFFFFF" d="M496.5,283.5l-2.2,4.7h-7.4v-21.6h4.6v-9.7h-5.2V254l-2.9,6.7h1.2v28.6h-7.2v-24.5h-2.2l-1.3-6.4h2.2
			l5.4-12h8.2l-2.4,5.5h4.3v-5.6h6.8v5.6h4.8v5h-4.8v9.7h4.6v21.6h-6.3v-16.9H493v12.3H496.5z M510.9,259.7c0.3,2.9,0.9,5.5,1.6,7.9
			c0.9-3.1,1.4-6.4,1.7-9.8h-10.8l2.5-10.9h7.5l-1.2,5.5h9v5.5h-0.8c-0.6,7-2,12.9-4.2,17.8c1.4,2.2,3,4.2,4.8,6v7.7
			c-3.2-1.9-6.1-4.3-8.5-7.3c-2.3,3-5,5.4-8.2,7.3v-7.7c1.8-1.5,3.3-3.2,4.5-5.2c-2.4-4.7-4-10.2-4.8-16.7H510.9z"/>
	</g>
	<g>
		<path fill="#FFFFFF" d="M525.7,289.4v-24.5h-2.5l-1.5-6.4h2.5l6.2-12h9.4l-7.2,14.3h1.3v28.6H525.7z M554.7,247.1l2.7,10.3H569
			v5.6h-10.1l5.7,21.5h4.6l-1.6,4.9h-11l-6.8-26.4h-13.5v-5.6h12.1l-2.6-10.3H554.7z M558.6,254.5v-5.6h9.6l-2.7,5.6H558.6z"/>
	</g>
	<g>
		<path fill="#FFFFFF" d="M585.5,283.5v5.4h-15.7v-5.4h3.8v-13.7h-3.4v-5.4h3.4v-11.2h-3.8v-5.4h15.7v5.4h-3.8v11.2h3.4v5.4h-3.4
			v13.7H585.5z M616.1,274.1v5.3h-9.7v4.5h10.8v5.2H587v-5.2h10.8v-4.5h-9.7v-5.3h9.7v-3.7h-10.6v-23.7H617v23.7h-7.2v-9.5h-3.3v4.3
			h3.3l-1.2,5.2h-2.1v3.7H616.1z M594.6,256h3.3v-4.3h-3.3V256z M594.6,265.3h3.3v-4.3h-3.3V265.3z M609.7,251.8h-3.3v4.3h3.3V251.8
			z"/>
	</g>
</g>
<path fill="#FB5A02" d="M253,221l-10-10H98.5v-4h145.4c0.5,0,1,0.2,1.4,0.6l10.6,10.6L253,221z"/>
<path fill="#FB5A02" d="M442.4,224.7l-3.4-2l7.5-12.7c0.4-0.6,1-1,1.7-1h147v4H449.4L442.4,224.7z"/>
<path fill="#FB5A02" d="M224.4,314.6l-4.2-12.2h-200v-4h201.4c0.9,0,1.6,0.5,1.9,1.3l4.7,13.5L224.4,314.6z"/>
<path fill="#FB5A02" d="M455.7,314.7l-3.6-1.8l4.7-9.5c0.3-0.7,1-1.1,1.8-1.1h166.6v4H459.8L455.7,314.7z"/>
</svg>
